<svg id="Layer_1" data-name="Layer 1" xmlns="http://www.w3.org/2000/svg" width="200" height="68.5607" viewBox="0 0 200 68.5607" preserveAspectRatio="xMidYMid meet"><defs><style>.cls-1{fill:#a55082;}.cls-2{fill:#210d14;}</style></defs><title>watad-logo-color-200</title><path class="cls-1" d="M48.7082,45.4414q2.0814-4.6971,4.1627-9.4237a2.4521,2.4521,0,0,0-.1885-2.354,2.6006,2.6006,0,0,0-2.1517-1.1491,2.4841,2.4841,0,0,0-2.3038,1.5275L39.019,55.1208,30.0881,37.0182a2.6432,2.6432,0,0,0-4.6415.14l-8.88,17.9725L7.3215,34.0527A2.4734,2.4734,0,0,0,5.028,32.5145a2.5685,2.5685,0,0,0-2.1244,1.1382,2.4662,2.4662,0,0,0-.1821,2.378L6.14,43.7948c2.6333,5.9744,5.3566,12.1525,8.0024,18.2692a2.4725,2.4725,0,0,0,2.3115,1.52,2.53,2.53,0,0,0,2.3006-1.4322L27.7731,43.76,36.82,62.212a2.5951,2.5951,0,0,0,2.286,1.3718,2.4576,2.4576,0,0,0,2.2922-1.5092c2.3629-5.4611,4.8014-10.9684,7.16-16.2945Z"/><path class="cls-1" d="M65.3335,34.0166a2.4431,2.4431,0,0,0-4.3767-.02L47.874,59.7886a2.462,2.462,0,0,0,.09,2.4065,2.5186,2.5186,0,0,0,2.1293,1.1866,2.4106,2.4106,0,0,0,2.155-1.3393l3.1659-6.3H70.9057L74.0873,62.07a2.3924,2.3924,0,0,0,2.1416,1.3119,2.5248,2.5248,0,0,0,2.1284-1.1866,2.4353,2.4353,0,0,0,.0837-2.4188ZM68.4581,50.95H57.8252l5.33-10.5515Z"/><path class="cls-1" d="M98.0306,38.14a2.3982,2.3982,0,1,0,0-4.79H75.37a2.3982,2.3982,0,1,0,0,4.79h8.834v22.568A2.499,2.499,0,1,0,89.2,60.7051L89.1619,38.14Z"/><path class="cls-1" d="M112.1669,34.0084a2.39,2.39,0,0,0-2.1693-1.3589,2.441,2.441,0,0,0-2.2043,1.3466L94.71,59.7908a2.455,2.455,0,0,0,.0908,2.4067A2.527,2.527,0,0,0,96.93,63.3817a2.403,2.403,0,0,0,2.1537-1.3393l3.1672-6.3h15.4912l3.1814,6.3251a2.3888,2.3888,0,0,0,2.142,1.3141,2.5246,2.5246,0,0,0,2.1289-1.1879,2.4433,2.4433,0,0,0,.0833-2.4174ZM115.2955,50.95H104.6621l5.3308-10.5515Z"/><path class="cls-1" d="M139.3156,33.3905h-9.5411a2.8528,2.8528,0,0,0-2.89,2.8074V60.256a2.8728,2.8728,0,0,0,2.89,2.8487h9.5411a13.0363,13.0363,0,0,0,10.4415-4.7364,15.9079,15.9079,0,0,0,3.4286-10.1213C153.1856,41.092,148.8453,33.3905,139.3156,33.3905Zm6.666,21.846a8.2459,8.2459,0,0,1-6.666,3.0331H131.8V38.1816h7.5152c6.1519,0,8.9544,5.2076,8.9544,10.0448A11.1486,11.1486,0,0,1,145.9816,55.2366Z"/><path class="cls-2" d="M38.91,18.7046,28.1928,5.6261c-.3578-.4349-.5721-.6493-.9517-.6493a1.1533,1.1533,0,0,0-.9587.6493L15.6141,18.7046Z"/><path class="cls-2" d="M156.8169,61.6144a1.23,1.23,0,1,1-2.4595,0,1.23,1.23,0,0,1,2.4595,0Z"/><path class="cls-2" d="M180.3456,62.7h-1.35V52.7635a4.8245,4.8245,0,0,0-1.1418-3.3267,4.4821,4.4821,0,0,0-6.4147,0,4.8266,4.8266,0,0,0-1.1407,3.3267V62.7H168.98V52.7635a4.8242,4.8242,0,0,0-1.1412-3.3267,4.4444,4.4444,0,0,0-6.3185-.065,4.45,4.45,0,0,0-1.1571,2.4764V62.7H158.98V47.1532h1.3827v1.5753a5.3208,5.3208,0,0,1,4.34-1.8642,5.4279,5.4279,0,0,1,4.9358,3.0219,5.5538,5.5538,0,0,1,4.9511-3.0219,5.3426,5.3426,0,0,1,4.3087,1.8,6.7033,6.7033,0,0,1,1.4466,4.5171Z"/><path class="cls-2" d="M197.5,54.6622a2.6762,2.6762,0,0,1-.0809.7069h-14.147a6.7029,6.7029,0,0,0,1.9454,4.61,6.3727,6.3727,0,0,0,4.6457,1.74,9.846,9.846,0,0,0,3.0385-.4985,6.0844,6.0844,0,0,0,2.6365-1.4949l.9965.9481q-2.25,2.3142-6.6714,2.315a7.81,7.81,0,0,1-5.7957-2.2429,7.8924,7.8924,0,0,1-2.2262-5.8118,8.03,8.03,0,0,1,2.1863-5.7875,8.1962,8.1962,0,0,1,11.27-.0759A7.5861,7.5861,0,0,1,197.5,54.6622Zm-1.4313-.5641a6.7143,6.7143,0,0,0-1.9776-4.348,6.6814,6.6814,0,0,0-8.8255,0,6.6763,6.6763,0,0,0-1.9934,4.348Z"/></svg>